<?xml version="1.0" standalone="no"?>
<!DOCTYPE svg PUBLIC "-//W3C//DTD SVG 20010904//EN"
 "http://www.w3.org/TR/2001/REC-SVG-20010904/DTD/svg10.dtd">
<svg version="1.0" xmlns="http://www.w3.org/2000/svg"
 width="294.000000pt" height="294.000000pt" viewBox="0 0 294.000000 294.000000"
 preserveAspectRatio="xMidYMid meet">
<metadata>
Created by potrace 1.11, written by Peter Selinger 2001-2013
</metadata>
<g transform="translate(0.000000,294.000000) scale(0.100000,-0.100000)"
fill="#000000" stroke="none">
<path d="M2893 2456 c-13 -15 -64 -29 -298 -81 -230 -51 -403 -97 -563 -149
l-141 -46 -304 0 c-167 0 -333 -3 -368 -7 -61 -6 -66 -9 -117 -62 -60 -63
-182 -274 -182 -314 0 -19 -63 -152 -84 -176 -12 -13 -43 -38 -71 -56 -55 -36
-269 -206 -452 -360 -123 -104 -267 -251 -285 -291 -6 -13 -15 -24 -20 -24 -4
0 -8 -11 -8 -25 0 -44 34 -30 96 40 128 146 672 539 859 620 39 17 109 52 155
77 194 106 497 235 875 375 66 24 143 53 171 65 69 28 104 20 104 -23 0 -28 3
-31 23 -24 33 10 79 21 207 50 295 67 271 56 307 127 12 24 42 88 68 143 25
55 53 105 62 112 17 13 11 43 -9 43 -7 -1 -18 -7 -25 -14z"/>
<path d="M2356 1871 c-3 -5 -41 -20 -83 -35 -90 -29 -209 -70 -270 -92 -38
-14 -43 -19 -43 -47 0 -31 -33 -131 -50 -152 -4 -5 -20 -39 -35 -74 -34 -82
-69 -136 -99 -156 -40 -26 -146 -44 -303 -50 -80 -3 -149 -8 -154 -10 -10 -7
-118 22 -135 36 -20 16 -18 26 18 95 18 35 29 66 25 70 -21 21 -560 -296 -594
-349 -8 -13 -90 -229 -130 -345 -18 -53 -38 -87 -74 -126 -27 -30 -49 -63 -49
-75 0 -26 31 -46 93 -62 26 -6 47 -15 47 -20 0 -12 183 -12 196 0 5 4 32 16
59 26 90 33 133 90 185 245 39 116 54 145 87 167 23 15 69 18 367 25 501 10
495 10 547 40 57 33 150 131 179 188 44 86 116 286 150 417 10 40 26 83 34 96
21 32 76 184 68 191 -8 9 -30 7 -36 -3z"/>
</g>
</svg>
