<?xml version="1.0" encoding="utf-8"?>
<!-- Generator: Adobe Illustrator 23.0.0, SVG Export Plug-In . SVG Version: 6.00 Build 0)  -->
<svg version="1.1" xmlns="http://www.w3.org/2000/svg" xmlns:xlink="http://www.w3.org/1999/xlink" x="0px" y="0px"
	 viewBox="0 0 381.1 273.94" style="enable-background:new 0 0 381.1 273.94;" xml:space="preserve">
<style type="text/css">
	.st0{fill:#FFFFFF;}
	.st1{opacity:0.22;}
	.st2{fill:#A2DBF1;}
	.st3{opacity:0.3;}
	.st4{fill:#222221;}
	.st5{fill:#B3B3B3;}
	.st6{fill:#3E3E3D;}
	.st7{fill:#6F6F6F;}
	.st8{fill:none;stroke:#425973;stroke-width:3.3;stroke-linecap:round;stroke-linejoin:round;stroke-miterlimit:10;}
	.st9{fill:#DD9AB2;}
	.st10{fill:#D6819F;}
	.st11{fill:none;stroke:#425973;stroke-width:2.75;stroke-linecap:round;stroke-linejoin:round;stroke-miterlimit:10;}
	.st12{fill:#E9C2D0;}
	.st13{fill:#DB9022;}
	.st14{fill:none;}
	.st15{font-family:'Asap-Medium';}
	.st16{font-size:24.2px;}
</style>
<g id="BACKGROUND">
	<rect x="-62.01" y="-76.68" class="st0" width="500" height="500"/>
</g>
<g id="OBJECTS">
	<g>
		<g>
			<g class="st1">
				<path class="st2" d="M206.77,36.17C167.63,48.67,43.65-12.95,53.36,71.22c1.52,12.51,9.58,30.19,2.77,41.88
					c-4.93,8.75-13.97,13.88-22.71,17.28C10.6,139.65,2.11,157.05,7.89,181.9c15.45,66.95,99.58,51.07,143.75,31.22
					c31.41-14.77,68.45-17.31,100.97-4.81c25.48,10.17,41.36,31.52,71.27,25.27c26.52-5.32,30.52-30.36,22.78-53.67
					c-4.4-14.42-7.56-20.51,1.17-34.43c7.35-13.82,20.3-24.3,21.29-40.49c0.22-17.54-7.84-35.22-23.44-41.86
					c-12.76-5.44-24.33-3.24-36.96-6.58c-28.08-7.89-46.13-51.53-80.97-36.52c-8.69,4.1-13.57,13.55-23.04,16.3"/>
			</g>
			<g class="st3">
				<g>
					<g>
						<path class="st2" d="M192.57,30.16c3.55,0,3.55-5.5,0-5.5C189.03,24.66,189.03,30.16,192.57,30.16L192.57,30.16z"/>
					</g>
				</g>
				<g>
					<g>
						<path class="st2" d="M29.64,114.73c7.09,0,7.09-11,0-11C22.54,103.73,22.54,114.73,29.64,114.73L29.64,114.73z"/>
					</g>
				</g>
				<g>
					<g>
						<path class="st2" d="M360.32,158.59c7.09,0,7.09-11,0-11C353.23,147.59,353.23,158.59,360.32,158.59L360.32,158.59z"/>
					</g>
				</g>
				<g>
					<g>
						<path class="st2" d="M174.01,27.41c7.09,0,7.09-11,0-11C166.92,16.41,166.92,27.41,174.01,27.41L174.01,27.41z"/>
					</g>
				</g>
				<g>
					<g>
						<path class="st2" d="M371.32,141.13c9.22,0,9.22-14.3,0-14.3C362.1,126.83,362.1,141.13,371.32,141.13L371.32,141.13z"/>
					</g>
				</g>
				<g>
					<g>
						<path class="st2" d="M11.07,132.88c9.22,0,9.22-14.3,0-14.3C1.85,118.58,1.85,132.88,11.07,132.88L11.07,132.88z"/>
					</g>
				</g>
				<g>
					<g>
						<path class="st2" d="M316.32,46.94c9.22,0,9.22-14.3,0-14.3C307.1,32.64,307.1,46.94,316.32,46.94L316.32,46.94z"/>
					</g>
				</g>
				<g>
					<g>
						<path class="st2" d="M189.82,18.48c10.64,0,10.64-16.5,0-16.5C179.18,1.98,179.18,18.48,189.82,18.48L189.82,18.48z"/>
					</g>
				</g>
				<g>
					<g>
						<path class="st2" d="M377.24,154.05c5.32,0,5.32-8.25,0-8.25S371.92,154.05,377.24,154.05L377.24,154.05z"/>
					</g>
				</g>
				<g>
					<g>
						<path class="st2" d="M9.15,109.91c5.32,0,5.32-8.25,0-8.25C3.83,101.66,3.83,109.91,9.15,109.91L9.15,109.91z"/>
					</g>
				</g>
				<g>
					<g>
						<path class="st2" d="M333.51,54.91c5.32,0,5.32-8.25,0-8.25C328.19,46.66,328.19,54.91,333.51,54.91L333.51,54.91z"/>
					</g>
				</g>
				<g>
					<g>
						<path class="st2" d="M332.14,39.79c3.55,0,3.55-5.5,0-5.5C328.59,34.29,328.59,39.79,332.14,39.79L332.14,39.79z"/>
					</g>
				</g>
				<g>
					<g>
						<path class="st2" d="M53.56,30.3c7.09,0,7.09-11,0-11C46.47,19.3,46.47,30.3,53.56,30.3L53.56,30.3z"/>
					</g>
				</g>
				<g>
					<g>
						<path class="st2" d="M366.51,219.91c7.09,0,7.09-11,0-11C359.42,208.91,359.42,219.91,366.51,219.91L366.51,219.91z"/>
					</g>
				</g>
				<g>
					<g>
						<path class="st2" d="M9.01,224.73c7.09,0,7.09-11,0-11C1.92,213.73,1.92,224.73,9.01,224.73L9.01,224.73z"/>
					</g>
				</g>
				<g>
					<g>
						<path class="st2" d="M70.06,22.05c3.55,0,3.55-5.5,0-5.5C66.52,16.55,66.52,22.05,70.06,22.05L70.06,22.05z"/>
					</g>
				</g>
				<g>
					<g>
						<path class="st2" d="M367.2,197.91c3.55,0,3.55-5.5,0-5.5S363.65,197.91,367.2,197.91L367.2,197.91z"/>
					</g>
				</g>
				<g>
					<g>
						<path class="st2" d="M25.51,231.6c3.55,0,3.55-5.5,0-5.5S21.96,231.6,25.51,231.6L25.51,231.6z"/>
					</g>
				</g>
			</g>
		</g>
		<g>
			<g>
				<g>
					<g>
						<g>
							<g>
								<path class="st4" d="M104.03,139c-3.7,1.31-6.15,1.56-8.05-2.19c-1.46-2.89-2.44-5.86-4.28-8.57
									c-3.99-5.85-7.85-6.25-14.24-5.41c-6.34,0.83-14.98-0.79-15.95-8.12c-0.69-5.22-0.73-10.03-3.01-14.91
									c-1.13-2.41-4.68-0.31-3.56,2.08c2.54,5.42,1.43,11.33,3.28,16.85c1.88,5.6,8.16,7.41,13.43,8.04
									c3.98,0.48,7.47-0.49,11.38-0.48c4.2,0,7.06,7.2,8.39,10.36c2.77,6.59,6.7,8.8,13.69,6.33
									C107.61,142.1,106.54,138.11,104.03,139L104.03,139z"/>
							</g>
						</g>
						<g>
							<g>
								<g>
									<path class="st4" d="M60.43,94.23c-1.23,1.62-2.74,2.63-4.54,3.53c-1.9,0.96-0.23,3.8,1.67,2.85
										c2.34-1.18,4.14-2.63,5.73-4.72c0.55-0.72,0.11-1.85-0.59-2.26C61.84,93.14,60.98,93.52,60.43,94.23L60.43,94.23z"/>
								</g>
							</g>
							<g>
								<g>
									<path class="st4" d="M54.52,89.84c0.01,3.49,0.52,6.96,0.55,10.45c0.02,2.13,3.32,2.13,3.3,0
										c-0.03-3.49-0.54-6.96-0.55-10.45C57.82,87.71,54.52,87.71,54.52,89.84L54.52,89.84z"/>
								</g>
							</g>
							<g>
								<g>
									<path class="st4" d="M48.96,93.2c2.21,2.76,4.45,5.51,7.48,7.41c1.81,1.13,3.47-1.73,1.67-2.85
										c-2.77-1.73-4.8-4.37-6.82-6.89C49.96,89.21,47.64,91.56,48.96,93.2L48.96,93.2z"/>
								</g>
							</g>
							<g>
								<g>
									<path class="st4" d="M46.21,98.15c3.07,2.9,6.9,3.86,10.95,2.63c2.03-0.62,1.16-3.81-0.88-3.18
										c-2.93,0.9-5.5,0.34-7.74-1.78C47,94.36,44.66,96.69,46.21,98.15L46.21,98.15z"/>
								</g>
							</g>
						</g>
					</g>
					<g>
						<g>
							<g>
								<path class="st4" d="M272.74,149.24c0.15-5.39,1.95-7.19,7.15-7.61c3.38-0.28,6.81-0.23,10.15-0.85
									c5.1-0.95,5.01-7.99,6.98-11.62c3.02-5.55,11.12-4.96,16.35-6.6c5.76-1.81,7.97-6.68,8.31-12.36c0.16-2.66-3.97-2.64-4.13,0
									c-0.51,8.45-6.7,8.74-13.51,10.14c-6,1.23-10.06,4.52-12.15,10.31c-0.65,1.81-0.81,5.58-2.95,6.16
									c-3.49,0.94-7.5,0.51-11.09,0.9c-6.74,0.73-9.07,5.15-9.25,11.55C268.54,151.9,272.66,151.89,272.74,149.24L272.74,149.24z"
									/>
							</g>
						</g>
						<g>
							<g>
								<g>
									<path class="st4" d="M311.98,105.13c1.41,3.36,3.84,5.79,7.2,7.2c0.83,0.35,1.81-0.37,2.03-1.15
										c0.26-0.95-0.32-1.68-1.15-2.03c-2.17-0.91-3.99-2.73-4.9-4.9c-0.35-0.83-1.08-1.41-2.03-1.15
										C312.35,103.31,311.63,104.29,311.98,105.13L311.98,105.13z"/>
								</g>
							</g>
							<g>
								<g>
									<path class="st4" d="M316.87,100.84c0,2.75,0,5.5,0,8.25c0,2.13,3.3,2.13,3.3,0c0-2.75,0-5.5,0-8.25
										C320.17,98.71,316.87,98.71,316.87,100.84L316.87,100.84z"/>
								</g>
							</g>
							<g>
								<g>
									<path class="st4" d="M322.43,101.5c-1,2.88-2.73,5.06-5.08,6.97c-1.65,1.35,0.7,3.67,2.33,2.33
										c2.8-2.28,4.74-5.01,5.92-8.43C326.31,100.36,323.13,99.5,322.43,101.5L322.43,101.5z"/>
								</g>
							</g>
							<g>
								<g>
									<path class="st4" d="M326.45,104.95c-1.44,2.28-3.71,3.74-6.16,4.74c-1.94,0.8-1.09,3.99,0.88,3.18
										c3.29-1.35,6.21-3.2,8.14-6.26C330.44,104.82,327.58,103.16,326.45,104.95L326.45,104.95z"/>
								</g>
							</g>
						</g>
					</g>
				</g>
				<g>
					<g>
						<g>
							<path class="st5" d="M292.4,209c0,2.89-21.6,3.72-23.94,3.72H106.79c-2.33,0-23.94-0.84-23.94-3.72l19.71-29.55
								c0-2.89,1.89-5.23,4.22-5.23h161.68c2.33,0,4.23,2.34,4.23,5.23L292.4,209z"/>
							<g>
								<g>
									<polygon class="st6" points="154.38,202.42 112.82,202.42 120.09,184.82 157.68,184.82 									"/>
									<polygon class="st6" points="220.87,202.42 262.42,202.42 255.15,184.82 217.57,184.82 									"/>
									<polygon class="st6" points="267.04,202.42 281.67,202.42 269.7,184.82 258.66,184.82 									"/>
									<polygon class="st6" points="108.21,202.42 93.57,202.42 105.55,184.82 116.58,184.82 									"/>
									<polygon class="st6" points="217.22,202.42 158.03,202.42 161.33,184.82 213.92,184.82 									"/>
								</g>
								<g>
									<rect x="97.19" y="188.03" class="st5" width="180.88" height="2.69"/>
									<rect x="95.23" y="194.63" class="st5" width="184.8" height="2.69"/>
								</g>
							</g>
						</g>
						<g>
							<path class="st6" d="M293.51,215.85c0,2.33-0.48,4.22-2.81,4.22H84.56c-2.33,0-2.82-1.89-2.82-4.22v-3.62
								c0-2.33,0.48-4.22,2.82-4.22h206.14c2.33,0,2.81,1.89,2.81,4.22V215.85z"/>
							<path class="st7" d="M226.26,214.14c0,1.21-0.98,2.2-2.2,2.2h-72.88c-1.22,0-2.2-0.99-2.2-2.2l0,0c0-1.21,0.98-2.2,2.2-2.2
								h72.88C225.28,211.94,226.26,212.92,226.26,214.14L226.26,214.14z"/>
						</g>
					</g>
					<g>
						<path class="st6" d="M274.8,175.46c0,2.33-1.89,4.23-4.23,4.23h-165.9c-2.33,0-4.23-1.89-4.23-4.23V67.23
							c0-2.33,1.89-4.23,4.23-4.23h165.9c2.33,0,4.23,1.89,4.23,4.23V175.46z"/>
						<g>
							<g>
								<path class="st0" d="M187.62,68.88c2.27,0,2.27-3.52,0-3.52C185.35,65.36,185.35,68.88,187.62,68.88L187.62,68.88z"/>
							</g>
						</g>
						<g>
							<path class="st0" d="M262.6,168.66c0,2.01-1.63,3.63-3.63,3.63H116.29c-2.01,0-3.63-1.63-3.63-3.63V75.58
								c0-2.01,1.63-3.63,3.63-3.63h142.68c2,0,3.63,1.63,3.63,3.63V168.66z"/>
							<g>
								<g>
									<g>
										<line class="st8" x1="165.8" y1="109.67" x2="153.35" y2="122.12"/>
										<line class="st8" x1="165.8" y1="122.12" x2="153.35" y2="109.68"/>
									</g>
									<g>
										<line class="st8" x1="221.9" y1="109.67" x2="209.45" y2="122.12"/>
										<line class="st8" x1="221.9" y1="122.12" x2="209.45" y2="109.68"/>
									</g>
								</g>
								<g>
									<g>
										<path class="st9" d="M216.31,137.14v12.28c0,2.43-1.97,4.4-4.4,4.4h-2.37c-2.43,0-4.4-1.97-4.4-4.4v-12.28"/>
										<g>
											<polygon class="st10" points="212.65,137.78 210.72,152.08 208.79,137.78 											"/>
										</g>
									</g>
									<line class="st11" x1="150.33" y1="137.12" x2="224.92" y2="137.12"/>
								</g>
								<g>
									<g>
										<g>
											<path class="st12" d="M138.12,135.3c7.09,0,7.09-11,0-11C131.03,124.3,131.03,135.3,138.12,135.3L138.12,135.3z"/>
										</g>
									</g>
									<g>
										<g>
											<path class="st12" d="M237.12,135.3c7.09,0,7.09-11,0-11C230.03,124.3,230.03,135.3,237.12,135.3L237.12,135.3z"/>
										</g>
									</g>
								</g>
							</g>
						</g>
					</g>
				</g>
			</g>
			<g>
				<g>
					<g>
						<path class="st13" d="M246.47,48.59c0,12.1,0,24.2,0,36.3c0,3.55,5.5,3.55,5.5,0c0-12.1,0-24.2,0-36.3
							C251.97,45.04,246.47,45.04,246.47,48.59L246.47,48.59z"/>
					</g>
				</g>
				<g>
					<g>
						<path class="st13" d="M249.22,98.91c5.32,0,5.32-8.25,0-8.25S243.9,98.91,249.22,98.91L249.22,98.91z"/>
					</g>
				</g>
			</g>
		</g>
	</g>
	<g>
		<path class="st2" d="M261.14,265.14c0,4.86-3.94,8.8-8.8,8.8h-128.7c-4.86,0-8.8-3.94-8.8-8.8v-17.6c0-4.86,3.94-8.8,8.8-8.8
			h128.7c4.86,0,8.8,3.94,8.8,8.8V265.14z"/>
		<rect x="120.48" y="247.17" class="st14" width="135.02" height="22.74"/>
		<text transform="matrix(1 0 0 1 132.9883 264.3512)" class="st0 st15 st16">404 error</text>
	</g>
</g>
<g id="DESIGNED_BY_FREEPIK">
</g>
</svg>
